# xmcd CD database file
#
# Track frame offsets:
#	150
#	27930
#	46262
#	72052
#
# Disc length: 1332 seconds
#
# Revision: 0
# Processed by: cddbd v1.5.1PL0 Copyright (c) Steve Scherf et al.
# Submitted via: CDex 1.51
#
DISCID=2a053204
DTITLE=種浦マサオ - 夕暮れ Vol..1
DYEAR=1999
DGENRE=JPop
TTITLE0=夕暮れ
TTITLE1=なんてことないさ！
TTITLE2=走り出す君と、立ち止まる僕と、
TTITLE3=夕暮れ（Barking Track)
EXTD=YEAR: 1999
EXTT0=
EXTT1=
EXTT2=
EXTT3=
PLAYORDER=
